<?xml version="1.0" encoding="UTF-8"?> <svg xmlns="http://www.w3.org/2000/svg" id="Слой_1" data-name="Слой 1" viewBox="0 0 741 577"><defs><style>.cls-1{fill:#ff7bac;}.cls-2{fill:#fff;}</style></defs><rect class="cls-1" y="51" width="741" height="526" rx="52.31"></rect><path class="cls-2" d="M1308,715H694a44,44,0,0,1-44-44V357h702V671A44,44,0,0,1,1308,715Z" transform="translate(-631 -156)"></path><path class="cls-1" d="M765.5,255A11.51,11.51,0,0,1,754,243.5v-72a11.5,11.5,0,0,1,23,0v72A11.51,11.51,0,0,1,765.5,255Z" transform="translate(-631 -156)"></path><path class="cls-2" d="M765.5,162a9.51,9.51,0,0,1,9.5,9.5v72a9.5,9.5,0,0,1-19,0v-72a9.51,9.51,0,0,1,9.5-9.5m0-4A13.49,13.49,0,0,0,752,171.5v72a13.5,13.5,0,0,0,27,0v-72A13.49,13.49,0,0,0,765.5,158Z" transform="translate(-631 -156)"></path><path class="cls-1" d="M849.5,253A11.51,11.51,0,0,1,838,241.5v-72a11.5,11.5,0,0,1,23,0v72A11.51,11.51,0,0,1,849.5,253Z" transform="translate(-631 -156)"></path><path class="cls-2" d="M849.5,160a9.51,9.51,0,0,1,9.5,9.5v72a9.5,9.5,0,0,1-19,0v-72a9.51,9.51,0,0,1,9.5-9.5m0-4A13.49,13.49,0,0,0,836,169.5v72a13.5,13.5,0,0,0,27,0v-72A13.49,13.49,0,0,0,849.5,156Z" transform="translate(-631 -156)"></path><path class="cls-1" d="M925.5,255A11.51,11.51,0,0,1,914,243.5v-72a11.5,11.5,0,0,1,23,0v72A11.51,11.51,0,0,1,925.5,255Z" transform="translate(-631 -156)"></path><path class="cls-2" d="M925.5,162a9.51,9.51,0,0,1,9.5,9.5v72a9.5,9.5,0,0,1-19,0v-72a9.51,9.51,0,0,1,9.5-9.5m0-4A13.49,13.49,0,0,0,912,171.5v72a13.5,13.5,0,0,0,27,0v-72A13.49,13.49,0,0,0,925.5,158Z" transform="translate(-631 -156)"></path><path class="cls-1" d="M1008.5,255A11.51,11.51,0,0,1,997,243.5v-72a11.5,11.5,0,0,1,23,0v72A11.51,11.51,0,0,1,1008.5,255Z" transform="translate(-631 -156)"></path><path class="cls-2" d="M1008.5,162a9.51,9.51,0,0,1,9.5,9.5v72a9.5,9.5,0,0,1-19,0v-72a9.51,9.51,0,0,1,9.5-9.5m0-4A13.49,13.49,0,0,0,995,171.5v72a13.5,13.5,0,0,0,27,0v-72a13.49,13.49,0,0,0-13.5-13.5Z" transform="translate(-631 -156)"></path><path class="cls-1" d="M1083.5,255a11.51,11.51,0,0,1-11.5-11.5v-72a11.5,11.5,0,0,1,23,0v72A11.51,11.51,0,0,1,1083.5,255Z" transform="translate(-631 -156)"></path><path class="cls-2" d="M1083.5,162a9.51,9.51,0,0,1,9.5,9.5v72a9.5,9.5,0,0,1-19,0v-72a9.51,9.51,0,0,1,9.5-9.5m0-4a13.49,13.49,0,0,0-13.5,13.5v72a13.5,13.5,0,0,0,27,0v-72a13.49,13.49,0,0,0-13.5-13.5Z" transform="translate(-631 -156)"></path><path class="cls-1" d="M1160.5,253a11.51,11.51,0,0,1-11.5-11.5v-72a11.5,11.5,0,0,1,23,0v72A11.51,11.51,0,0,1,1160.5,253Z" transform="translate(-631 -156)"></path><path class="cls-2" d="M1160.5,160a9.51,9.51,0,0,1,9.5,9.5v72a9.5,9.5,0,0,1-19,0v-72a9.51,9.51,0,0,1,9.5-9.5m0-4a13.49,13.49,0,0,0-13.5,13.5v72a13.5,13.5,0,0,0,27,0v-72a13.49,13.49,0,0,0-13.5-13.5Z" transform="translate(-631 -156)"></path><path class="cls-1" d="M1235.5,253a11.51,11.51,0,0,1-11.5-11.5v-72a11.5,11.5,0,0,1,23,0v72A11.51,11.51,0,0,1,1235.5,253Z" transform="translate(-631 -156)"></path><path class="cls-2" d="M1235.5,160a9.51,9.51,0,0,1,9.5,9.5v72a9.5,9.5,0,0,1-19,0v-72a9.51,9.51,0,0,1,9.5-9.5m0-4a13.49,13.49,0,0,0-13.5,13.5v72a13.5,13.5,0,0,0,27,0v-72a13.49,13.49,0,0,0-13.5-13.5Z" transform="translate(-631 -156)"></path><rect class="cls-1" x="42" y="229" width="79" height="67" rx="24.96"></rect><rect class="cls-1" x="160" y="229" width="79" height="67" rx="24.96"></rect><rect class="cls-1" x="275" y="229" width="79" height="67" rx="24.96"></rect><rect class="cls-1" x="391" y="229" width="79" height="67" rx="24.96"></rect><rect class="cls-1" x="512" y="229" width="79" height="67" rx="24.96"></rect><rect class="cls-1" x="623" y="229" width="79" height="67" rx="24.96"></rect><rect class="cls-1" x="40" y="334" width="79" height="67" rx="24.96"></rect><rect class="cls-1" x="158" y="334" width="79" height="67" rx="24.96"></rect><rect class="cls-1" x="273" y="334" width="79" height="67" rx="24.96"></rect><rect class="cls-1" x="389" y="334" width="79" height="67" rx="24.96"></rect><rect class="cls-1" x="510" y="334" width="79" height="67" rx="24.96"></rect><rect class="cls-1" x="621" y="334" width="79" height="67" rx="24.96"></rect><rect class="cls-1" x="40" y="439" width="79" height="67" rx="24.96"></rect><rect class="cls-1" x="158" y="439" width="79" height="67" rx="24.96"></rect><rect class="cls-1" x="273" y="439" width="79" height="67" rx="24.96"></rect><rect class="cls-1" x="389" y="439" width="79" height="67" rx="24.96"></rect><rect class="cls-1" x="510" y="439" width="79" height="67" rx="24.96"></rect><rect class="cls-1" x="621" y="439" width="79" height="67" rx="24.96"></rect></svg> 